<?xml version="1.0" encoding="UTF-8" standalone="no"?>
<!-- Created with Inkscape (http://www.inkscape.org/) -->

<svg
   width="54.721809mm"
   height="38.338158mm"
   viewBox="0 0 54.72181 38.338158"
   version="1.1"
   id="svg1"
   inkscape:version="1.3.2 (091e20e, 2023-11-25, custom)"
   sodipodi:docname="atena.svg"
   xmlns:inkscape="http://www.inkscape.org/namespaces/inkscape"
   xmlns:sodipodi="http://sodipodi.sourceforge.net/DTD/sodipodi-0.dtd"
   xmlns="http://www.w3.org/2000/svg"
   xmlns:svg="http://www.w3.org/2000/svg">
  <sodipodi:namedview
     id="namedview1"
     pagecolor="#ffffff"
     bordercolor="#000000"
     borderopacity="0.25"
     inkscape:showpageshadow="2"
     inkscape:pageopacity="0.0"
     inkscape:pagecheckerboard="0"
     inkscape:deskcolor="#d1d1d1"
     inkscape:document-units="mm"
     inkscape:zoom="1.9578168"
     inkscape:cx="107.26233"
     inkscape:cy="108.53927"
     inkscape:window-width="1920"
     inkscape:window-height="991"
     inkscape:window-x="-9"
     inkscape:window-y="-9"
     inkscape:window-maximized="1"
     inkscape:current-layer="layer1" />
  <defs
     id="defs1" />
  <g
     inkscape:label="Layer 1"
     inkscape:groupmode="layer"
     id="layer1">
    <path
       style="fill:#dad7ce;fill-opacity:1;stroke:none;stroke-width:0.529167;stroke-linejoin:bevel;stroke-opacity:1;opacity:0.80769231"
       d="m 35.642715,23.619877 c -4.960654,5.138418 -26.26508,2.04125 -22.433577,-8.176093 0.74471,-1.985891 4.30183,-2.61336 3.513693,-5.135397 -0.642822,-2.0570308 -2.69916,-6.6922908 -0.540568,-8.3112345 0.861127,-0.6458454 7.288593,12.5389615 10.743791,10.8113625 1.760707,-0.880354 4.333312,0.0294 6.148962,-0.878424 0.476724,-0.238361 4.932685,-10.2369039 4.932685,-6.621959 0,6.476818 4.594421,15.166862 -1.756846,18.919884"
       id="path1" />
    <g
       id="g97"
       transform="translate(-125.72519,-140.13959)"
       style="stroke:#959187;stroke-opacity:1;opacity:1">
      <path
         style="opacity:1;fill:none;stroke:#959187;stroke-width:1;stroke-linejoin:bevel;stroke-dasharray:none;stroke-opacity:1"
         d="m 156.53194,166.05372 c -38.63463,0.74952 -8.49896,-24.3829 9.01705,-10.3701 4.044,3.2352 -0.54979,7.42667 -4.64513,9.39713 -1.6637,0.80048 -3.83755,0.98054 -4.39488,0.97606"
         id="path35"
         sodipodi:nodetypes="cssc" />
      <path
         style="opacity:1;fill:none;stroke:#959187;stroke-width:1;stroke-linejoin:bevel;stroke-dasharray:none;stroke-opacity:1"
         d="m 142.1532,154.19705 c -5.28812,-18.45905 0.96263,-9.98315 7.18383,-2.34616"
         id="path36" />
      <path
         style="opacity:1;fill:none;stroke:#959187;stroke-width:1;stroke-linejoin:bevel;stroke-dasharray:none;stroke-opacity:1"
         d="m 158.92703,151.85089 c 3.99791,-18.29067 9.48747,-4.18345 4.56252,2.3905"
         id="path37" />
      <path
         style="opacity:1;fill:none;stroke:#959187;stroke-width:1;stroke-linejoin:bevel;stroke-dasharray:none;stroke-opacity:1"
         d="m 146.1871,157.44046 c 0.4569,-5.95719 3.71886,-2.25899 3.53758,-0.27028"
         id="path38" />
      <path
         style="opacity:1;fill:none;stroke:#959187;stroke-width:1;stroke-linejoin:bevel;stroke-dasharray:none;stroke-opacity:1"
         d="m 154.60248,157.47869 c -0.64655,-4.64387 2.12985,-3.80593 2.97313,-0.71394"
         id="path39" />
      <path
         style="opacity:1;fill:none;stroke:#959187;stroke-width:0.529167;stroke-linejoin:bevel;stroke-dasharray:none;stroke-opacity:1"
         d="m 150.36342,160.54054 c 1.8347,-0.0247 3.66441,-0.003 5.49469,0.11945"
         id="path40" />
      <path
         style="opacity:1;fill:none;stroke:#959187;stroke-width:0.529167;stroke-linejoin:bevel;stroke-dasharray:none;stroke-opacity:1"
         d="m 152.13127,160.79198 c 0.19175,3.21371 1.79321,3.55423 1.4334,-0.19638"
         id="path41" />
      <path
         style="opacity:1;fill:none;stroke:#959187;stroke-width:0.529167;stroke-linejoin:bevel;stroke-dasharray:none;stroke-opacity:1"
         d="m 142.09749,159.2027 c 0.0521,-5.77205 -12.75938,-8.09694 -13.28282,-1.81564"
         id="path89" />
      <path
         style="opacity:1;fill:none;stroke:#959187;stroke-width:0.529167;stroke-linejoin:bevel;stroke-dasharray:none;stroke-opacity:1"
         d="m 142.00193,159.29826 c -2.83426,-3.93578 -9.04385,-1.40651 -10.98938,2.48456"
         id="path90" />
      <path
         style="opacity:1;fill:none;stroke:#959187;stroke-width:0.529167;stroke-linejoin:bevel;stroke-dasharray:none;stroke-opacity:1"
         d="m 151.91626,158.82046 c 0.43926,1.01492 1.86101,-0.47254 -0.0239,-0.0956"
         id="path91" />
      <path
         style="opacity:1;fill:none;stroke:#959187;stroke-width:0.529167;stroke-linejoin:bevel;stroke-dasharray:none;stroke-opacity:1"
         d="m 164.56081,158.79727 c -0.0521,-5.77205 12.75938,-8.09694 13.28282,-1.81564"
         id="path92" />
      <path
         style="opacity:1;fill:none;stroke:#959187;stroke-width:0.529167;stroke-linejoin:bevel;stroke-dasharray:none;stroke-opacity:1"
         d="m 164.65637,158.89283 c 2.83426,-3.93578 9.04385,-1.40651 10.98938,2.48456"
         id="path93" />
      <path
         style="opacity:1;fill:none;stroke:#959187;stroke-width:0.529167;stroke-linejoin:bevel;stroke-dasharray:none;stroke-opacity:1"
         d="m 143.62645,150.86511 c -0.38323,-0.2521 -0.60499,-0.69248 -0.86004,-1.07505 -0.22706,-0.34059 -0.45813,-0.61385 -0.59725,-1.00338 -1.87877,-5.26055 3.57245,0.82331 2.26954,2.1262 -0.0329,0.0329 -0.7055,-0.0672 -0.81225,-0.0478 z"
         id="path95" />
      <path
         style="opacity:1;fill:none;stroke:#959187;stroke-width:0.529167;stroke-linejoin:bevel;stroke-dasharray:none;stroke-opacity:1"
         d="m 161.44836,150.74565 c -0.2207,-0.75264 -0.0885,-1.51969 -0.0478,-2.29343 0.19172,-3.64277 1.5783,-1.99267 1.86341,0.57336 0.25995,2.33947 -1.31994,3.70645 -2.10231,1.6723"
         id="path96" />
    </g>
    <g
       id="g57"
       transform="rotate(31.652796,87.401732,-54.336225)"
       style="stroke:#959187;stroke-opacity:1;opacity:1">
      <g
         id="g53"
         transform="translate(-6.4868179,-5.5408229)"
         style="stroke:#959187;stroke-opacity:1">
        <path
           style="fill:none;stroke:#959187;stroke-width:0.529167;stroke-linejoin:bevel;stroke-opacity:1"
           d="m 67.734788,65.004462 c -1.946714,-5.621358 -0.02543,-8.89505 1.541288,-0.835011"
           id="path18" />
        <path
           style="fill:none;stroke:#959187;stroke-width:0.529167;stroke-linejoin:bevel;stroke-opacity:1"
           d="m 66.035985,63.777103 c 1.087388,-0.253461 2.552817,-0.698559 3.406937,-1.002962"
           id="path19" />
        <path
           style="fill:none;stroke:#959187;stroke-width:0.529167;stroke-linejoin:bevel;stroke-opacity:1"
           d="m 70.973883,60.383562 c 0.209481,0.936268 0.409173,1.854615 0.593913,2.805007"
           id="path46" />
        <path
           style="fill:none;stroke:#959187;stroke-width:0.529167;stroke-linejoin:bevel;stroke-opacity:1"
           d="m 69.98894,60.575017 c 0.781738,-0.186671 1.814711,-0.38717 2.40244,-0.661686"
           id="path47" />
        <path
           style="fill:none;stroke:#959187;stroke-width:0.529167;stroke-linejoin:bevel;stroke-opacity:1"
           d="m 73.734408,62.816096 c -0.116221,-0.95836 -0.332579,-2.180682 -0.666848,-3.180223 0.790846,-0.234802 1.534364,-0.54162 2.346422,-0.699468"
           id="path48" />
        <path
           style="fill:none;stroke:#959187;stroke-width:0.529167;stroke-linejoin:bevel;stroke-opacity:1"
           d="m 73.724081,61.260529 c 0.491443,-0.03174 0.884907,-0.243091 1.267674,-0.489781"
           id="path49" />
        <path
           style="fill:none;stroke:#959187;stroke-width:0.529167;stroke-linejoin:bevel;stroke-opacity:1"
           d="m 73.988469,62.620691 c 0.737034,-0.05094 1.435393,-0.230338 2.166612,-0.372473"
           id="path50" />
        <path
           style="fill:none;stroke:#959187;stroke-width:0.529167;stroke-linejoin:bevel;stroke-opacity:1"
           d="m 76.990201,62.037213 c -2.682796,-7.736189 4.895085,4.436322 1.451546,-3.299952"
           id="path51" />
        <path
           style="fill:none;stroke:#959187;stroke-width:0.529167;stroke-linejoin:bevel;stroke-opacity:1"
           d="m 80.377585,61.184075 c -0.590442,-3.74196 0.477178,-3.451048 2.225267,-0.821941"
           id="path52" />
        <path
           style="fill:none;stroke:#959187;stroke-width:0.529167;stroke-linejoin:bevel;stroke-opacity:1"
           d="m 80.31772,60.124879 c 0.485206,-0.306602 1.034941,-0.536633 1.559523,-0.741209"
           id="path53" />
      </g>
      <path
         style="fill:none;stroke:#959187;stroke-width:0.529167;stroke-linejoin:bevel;stroke-opacity:1"
         d="m 59.93549,61.827478 c 6.329185,-2.576817 13.001636,-4.791239 19.730736,-6.419247"
         id="path57" />
    </g>
  </g>
</svg>
