<?xml version="1.0" encoding="UTF-8" standalone="no"?>
<!-- Created with Inkscape (http://www.inkscape.org/) -->

<svg
   width="59.779922mm"
   height="69.949806mm"
   viewBox="0 0 59.779922 69.949806"
   version="1.1"
   id="svg1"
   sodipodi:docname="beer.svg"
   inkscape:version="1.3.2 (091e20e, 2023-11-25, custom)"
   xml:space="preserve"
   xmlns:inkscape="http://www.inkscape.org/namespaces/inkscape"
   xmlns:sodipodi="http://sodipodi.sourceforge.net/DTD/sodipodi-0.dtd"
   xmlns="http://www.w3.org/2000/svg"
   xmlns:svg="http://www.w3.org/2000/svg"><sodipodi:namedview
     id="namedview1"
     pagecolor="#ffffff"
     bordercolor="#000000"
     borderopacity="0.25"
     inkscape:showpageshadow="2"
     inkscape:pageopacity="0.0"
     inkscape:pagecheckerboard="0"
     inkscape:deskcolor="#d1d1d1"
     inkscape:document-units="mm"
     inkscape:zoom="0.97890839"
     inkscape:cx="119.52089"
     inkscape:cy="150.67804"
     inkscape:window-width="1920"
     inkscape:window-height="991"
     inkscape:window-x="-9"
     inkscape:window-y="-9"
     inkscape:window-maximized="1"
     inkscape:current-layer="layer1" /><defs
     id="defs1" /><g
     inkscape:label="Layer 1"
     inkscape:groupmode="layer"
     id="layer1"><g
       id="g43"
       transform="translate(-123.65459,-188.94528)"><path
         style="fill:#dddbd8;fill-opacity:0.815686;stroke:none;stroke-width:1;stroke-linejoin:bevel;stroke-dasharray:none;stroke-opacity:1"
         d="m 165.14356,247.85048 c -3.98906,-2.47639 -15.9694,1.54192 -19.73074,-1.35142 -5.16544,-3.97342 -4.26416,-10.37775 -5.8111,-15.94676 -2.83572,-10.20858 -7.64366,-22.35787 1.08113,-31.08267 2.94443,-2.94442 7.80308,0.87403 10.54108,1.21628 3.51487,0.43936 8.29487,-0.0839 11.08164,2.70284 0.79526,0.79525 1.6469,7.12814 2.02714,8.64909 3.03966,12.15866 3.67503,17.08861 2.16227,29.19068 -0.31476,2.51807 -0.12167,4.57238 -1.35142,6.62196 z"
         id="path42" /><path
         style="fill:none;fill-opacity:1;stroke:#959187;stroke-width:1;stroke-linejoin:bevel;stroke-dasharray:none;stroke-opacity:1"
         d="m 142.57484,243.52593 c -1.41333,-3.57364 -0.77412,-7.59951 -1.35142,-11.35193 -0.63284,-4.11347 -0.34424,-8.28963 -0.67571,-12.43306 -0.18407,-2.30092 -0.0526,-4.58192 -0.13514,-6.89224 -0.0316,-0.88412 -1.1659,-9.29043 -0.67571,-10.2708 0.005,-0.0106 1.63886,1.01372 1.75684,1.08114 1.43946,0.82254 2.80668,1.74261 4.32455,2.43255 3.77687,1.71676 7.80594,1.62171 11.8925,1.62171 2.58296,0 7.75233,-0.11106 8.3788,-3.24341 0.39911,-1.99553 -2.19963,-2.56975 -3.37855,-3.24341 -4.45322,-2.5447 -11.48932,-3.31566 -16.48733,-2.16227 -1.79148,0.41342 -3.02138,1.39775 -4.59482,2.02713 -0.86774,0.34709 -1.80931,1.05091 -2.16228,1.75684"
         id="path13" /><path
         style="fill:none;fill-opacity:1;stroke:#959187;stroke-width:1;stroke-linejoin:bevel;stroke-dasharray:none;stroke-opacity:1"
         d="m 142.84512,243.66108 c 2.10878,0.73544 4.14348,1.79424 6.35168,2.16227 1.35555,0.22592 2.95079,0 4.32454,0 4.47593,0 8.8074,-0.0605 12.56821,-2.5677"
         id="path14" /><path
         style="fill:none;fill-opacity:1;stroke:#959187;stroke-width:1;stroke-linejoin:bevel;stroke-dasharray:none;stroke-opacity:1"
         d="m 166.35984,204.33475 0.27028,38.9209"
         id="path21" /><path
         style="fill:none;fill-opacity:1;stroke:#959187;stroke-width:1;stroke-linejoin:bevel;stroke-dasharray:none;stroke-opacity:1"
         d="m 142.84512,243.39079 c 0.73983,1.41863 2.06042,2.90456 2.70284,4.1894 0.12505,0.25009 2.0621,0.13515 2.29742,0.13515 2.96063,0 6.10287,-0.29517 9.05451,0 0.50128,0.0501 6.73872,0.28867 6.89225,0.13514 1.19725,-1.19725 1.52158,-3.27843 2.70284,-4.45969"
         id="path22" /><path
         style="fill:none;fill-opacity:1;stroke:#959187;stroke-width:1;stroke-linejoin:bevel;stroke-dasharray:none;stroke-opacity:1"
         d="m 158.11618,201.09134 c 1.26635,2.08656 -0.95885,4.11541 -4.32455,2.43256 -0.12741,-0.0637 0.29147,0.0497 0.40543,0.13514 0.58845,0.44134 1.17531,0.52418 1.89199,0.81085 1.30924,0.5237 3.81767,1.40214 5.27054,0.67571 3.01704,-1.50852 -1.5358,-4.05426 -3.24341,-4.05426 z"
         id="path23" /><path
         style="fill:none;fill-opacity:1;stroke:#959187;stroke-width:1;stroke-linejoin:bevel;stroke-dasharray:none;stroke-opacity:1"
         d="m 154.87277,201.6319 c -1.29601,0.0958 -2.30955,-0.68177 -3.37855,-1.21627 -1.72017,-0.86009 -5.56619,-4.41956 -2.16227,-5.27054 0.80734,-0.20184 1.68198,-0.44743 2.56769,-0.27029 3.88127,0.77626 6.83703,7.52989 2.97313,6.7571 z"
         id="path24" /><path
         style="fill:none;fill-opacity:1;stroke:#959187;stroke-width:1;stroke-linejoin:bevel;stroke-dasharray:none;stroke-opacity:1"
         d="m 146.15878,223.84894 c -0.3232,-0.70389 -0.55531,-1.43907 -0.86004,-2.1501 -0.32379,-0.75552 -0.22535,-0.6732 -0.62114,-1.38562 -0.40504,-0.72907 -1.29712,-1.35768 -0.95559,-2.24566 0.37161,-0.96619 3.6821,-2.87313 3.96573,-1.24227 0.21656,1.24519 -0.29136,2.41458 -1.38562,3.10569 -0.0727,0.0459 -0.88742,0.40263 -0.9556,0.33446 -0.19441,-0.19441 1.43464,-0.54704 1.57674,-0.57336 1.0893,-0.20172 2.25312,-0.29961 2.53234,1.00338 0.38454,1.79454 -1.21787,3.5957 -2.96236,2.72346"
         id="path25" /><path
         style="fill:none;fill-opacity:1;stroke:#959187;stroke-width:1;stroke-linejoin:bevel;stroke-dasharray:none;stroke-opacity:1"
         d="m 151.89237,222.55888 c -0.58928,-1.9112 -1.17857,-3.8224 -1.76785,-5.73359"
         id="path26" /><path
         style="fill:none;fill-opacity:1;stroke:#959187;stroke-width:1;stroke-linejoin:bevel;stroke-dasharray:none;stroke-opacity:1"
         d="m 152.22683,219.45318 c 0.28668,0.43002 0.53582,0.88759 0.86004,1.29006 1.456,1.80745 2.74265,-1.27566 1.38562,-2.29343"
         id="path27" /><path
         style="fill:none;fill-opacity:1;stroke:#959187;stroke-width:1;stroke-linejoin:bevel;stroke-dasharray:none;stroke-opacity:1"
         d="m 156.67037,219.1665 c 0.52817,-0.23234 2.03297,-0.16955 2.34121,-0.4778 0.23998,-0.23997 -0.84299,-2.21492 -2.29343,-0.76447 -1.58565,1.58564 -0.20571,3.22178 1.76785,3.10569 0.56885,-0.0335 1.03993,-0.28107 1.52896,-0.52558"
         id="path28" /><path
         style="fill:none;fill-opacity:1;stroke:#959187;stroke-width:1;stroke-linejoin:bevel;stroke-dasharray:none;stroke-opacity:1"
         d="m 147.64267,232.10643 c -0.19476,-0.42044 -0.13515,-0.83238 -0.13515,-1.28385 0,-1.35228 0.0597,-2.58539 0.27029,-3.91912 0.0184,-0.11648 0.29228,-1.26262 0.33785,-1.1487 0.31769,0.79422 0.76765,3.4583 1.41899,3.78397 0.11235,0.0562 0.0676,-1.78468 0.0676,-1.82441 0,-0.37892 -0.0505,-6.28021 0.6757,-3.24341 0.18086,0.75631 0.24788,1.5359 0.40543,2.29741 0.1129,0.54565 0.24891,1.08694 0.40543,1.62171 0.27431,0.93721 0.6431,1.89434 1.08113,2.77041"
         id="path29" /><path
         style="fill:none;fill-opacity:1;stroke:#959187;stroke-width:1;stroke-linejoin:bevel;stroke-dasharray:none;stroke-opacity:1"
         d="m 153.72406,230.0793 c 0.46483,-0.1024 0.94709,-0.33895 1.28385,-0.67571 1.34788,-1.34789 -0.97203,-2.61187 -2.22985,-2.29741 -2.05812,0.51453 -1.54825,2.97312 0.946,2.97312 z"
         id="path30" /><path
         style="fill:none;fill-opacity:1;stroke:#959187;stroke-width:1;stroke-linejoin:bevel;stroke-dasharray:none;stroke-opacity:1"
         d="m 155.54847,227.5116 c 0.15901,0.79053 0.76081,1.26033 1.55414,1.419 0.61704,0.1234 1.34353,-0.2624 1.75684,-0.67571 0.64372,-0.64373 1.31721,-1.1999 0.60814,-2.02713 -1.82678,-2.13125 -4.91899,-0.71591 -3.91912,1.28384 z"
         id="path31" /><path
         style="fill:none;fill-opacity:1;stroke:#959187;stroke-width:1;stroke-linejoin:bevel;stroke-dasharray:none;stroke-opacity:1"
         d="m 159.67031,224.13305 c 0.32146,0.4326 0.60955,0.91575 0.81085,1.41899 0.63584,1.74858 0.0259,0.15955 0.40543,1.01357 0.0237,0.0534 0.29886,1.14871 0.33785,1.14871 0.12844,0 -0.6575,-3.4379 -0.20271,-3.5137 0.86885,-0.1448 2.67439,2.413 1.95956,2.77042"
         id="path32" /></g></g></svg>
