<?xml version="1.0" encoding="UTF-8" standalone="no"?>
<!-- Created with Inkscape (http://www.inkscape.org/) -->

<svg
   width="82.966492mm"
   height="52.122643mm"
   viewBox="0 0 82.966492 52.122643"
   version="1.1"
   id="svg1"
   inkscape:version="1.3.2 (091e20e, 2023-11-25, custom)"
   sodipodi:docname="hades.svg"
   xmlns:inkscape="http://www.inkscape.org/namespaces/inkscape"
   xmlns:sodipodi="http://sodipodi.sourceforge.net/DTD/sodipodi-0.dtd"
   xmlns="http://www.w3.org/2000/svg"
   xmlns:svg="http://www.w3.org/2000/svg">
  <sodipodi:namedview
     id="namedview1"
     pagecolor="#ffffff"
     bordercolor="#000000"
     borderopacity="0.25"
     inkscape:showpageshadow="2"
     inkscape:pageopacity="0.0"
     inkscape:pagecheckerboard="0"
     inkscape:deskcolor="#d1d1d1"
     inkscape:document-units="mm"
     inkscape:zoom="2.768771"
     inkscape:cx="220.31436"
     inkscape:cy="126.59046"
     inkscape:window-width="1920"
     inkscape:window-height="991"
     inkscape:window-x="-9"
     inkscape:window-y="-9"
     inkscape:window-maximized="1"
     inkscape:current-layer="layer1" />
  <defs
     id="defs1" />
  <g
     inkscape:label="Layer 1"
     inkscape:groupmode="layer"
     id="layer1">
    <path
       style="opacity:1;fill:#dddbd8;fill-opacity:0.815686;stroke:#dddbd8;stroke-width:5.29167;stroke-linejoin:bevel;stroke-dasharray:none;stroke-opacity:0.815686"
       d="m 44.244208,36.8861 c 9.624936,-2.008603 19.374588,-3.650549 29.145754,-4.777991"
       id="path18" />
    <path
       style="opacity:1;fill:#dddbd8;fill-opacity:0.815686;stroke:#dddbd8;stroke-width:5.54543;stroke-linejoin:bevel;stroke-dasharray:none;stroke-opacity:0.815686"
       d="M 48.307747,40.40719 C 58.632219,38.980439 68.998615,37.517688 79.169112,35.369123"
       id="path17" />
    <path
       style="fill:#dddcd8;fill-opacity:1;stroke:none;stroke-width:0.529167;stroke-linejoin:bevel;stroke-opacity:1;opacity:0.81468531"
       d="m 13.581774,41.488603 c -0.732212,-2.345243 -0.08371,-4.884793 -0.405426,-7.297669 -2.539254,-19.044406 3.185668,-8.272534 9.189658,-5.270539 0.780788,0.390392 1.421064,-1.971093 2.567699,-1.554134 0.630189,0.229161 2.880366,2.795598 3.581263,2.094701 1.698234,-1.698231 2.509901,-4.46946 4.256974,-6.216533 1.467067,-1.467067 1.337839,3.937899 2.229845,5.811107 0.555149,1.165818 4.502875,12.366611 4.054261,12.63578 -4.612677,2.767605 -9.103318,0.05651 -13.649346,1.013566 C 21.77908,43.468591 8.8837851,50.63527 11.554643,42.02917"
       id="path5" />
    <g
       id="g98"
       transform="translate(-162.49689,-89.384102)"
       style="stroke:#959187;stroke-opacity:1;opacity:1">
      <path
         style="opacity:1;fill:none;stroke:#959187;stroke-width:1.05833;stroke-linejoin:bevel;stroke-dasharray:none;stroke-opacity:1"
         d="m 175.14407,131.35806 c 2.10936,-6.15228 -0.17909,-14.46186 3.24341,-19.5956 0.37938,-0.56908 5.00025,4.57636 5.00025,5.54082 0,0.70367 0.91804,-1.35142 1.62171,-1.35142 2.03532,0 3.72525,1.89199 4.72997,1.89199 1.31675,0 3.60034,-8.15701 6.21653,-5.54082 4.98849,4.98849 1.74019,17.17155 7.56795,18.91988"
         id="path44" />
      <path
         style="opacity:1;fill:none;stroke:#959187;stroke-width:1.05833;stroke-linejoin:bevel;stroke-dasharray:none;stroke-opacity:1"
         d="m 178.18476,117.57356 c 0.26883,-2.07272 0.0666,-4.66378 1.95956,-1.82441 1.69035,2.53552 0.0139,1.60633 -2.63527,1.95956"
         id="path62" />
      <path
         style="opacity:1;fill:none;stroke:#959187;stroke-width:1.05833;stroke-linejoin:bevel;stroke-dasharray:none;stroke-opacity:1"
         d="m 192.84767,117.84385 c 0.54079,-5.32918 3.43466,-1.93785 4.12184,0.81085 0.0957,0.38274 -2.16864,-0.81085 -4.12184,-0.81085 z"
         id="path63" />
      <path
         style="opacity:1;fill:none;stroke:#959187;stroke-width:1.05833;stroke-linejoin:bevel;stroke-dasharray:none;stroke-opacity:1"
         d="m 186.15058,127.47683 c -9.60753,0.39548 -9.11971,-15.58174 0,-0.38224"
         id="path64" />
      <path
         style="opacity:1;fill:none;stroke:#959187;stroke-width:1.05833;stroke-linejoin:bevel;stroke-dasharray:none;stroke-opacity:1"
         d="m 188.51157,127.28571 c 9.60753,0.39548 9.11971,-15.58174 0,-0.38224"
         id="path65" />
      <path
         style="opacity:1;fill:none;stroke:#959187;stroke-width:0.529167;stroke-linejoin:bevel;stroke-dasharray:none;stroke-opacity:1"
         d="m 186.3417,128.91023 c 1.46779,2.08683 2.91762,-0.97254 0,0 z"
         id="path74" />
      <path
         style="opacity:1;fill:none;stroke:#959187;stroke-width:0.529167;stroke-linejoin:bevel;stroke-dasharray:none;stroke-opacity:1"
         d="m 185.48243,130.34449 c 1.3204,0.27456 2.61949,-0.13052 3.91912,-0.20272"
         id="path75" />
      <path
         style="opacity:1;fill:none;stroke:#959187;stroke-width:0.529167;stroke-linejoin:bevel;stroke-dasharray:none;stroke-opacity:1"
         d="m 182.80598,123.17664 c -0.0857,2.5512 0.19112,4.7052 0.19112,1.05116"
         id="path76" />
      <path
         style="opacity:1;fill:none;stroke:#959187;stroke-width:0.529167;stroke-linejoin:bevel;stroke-dasharray:none;stroke-opacity:1"
         d="m 191.40637,126.71235 c -0.16616,-3.39395 -0.81662,-3.45758 -0.19112,-0.95559"
         id="path77" />
      <path
         style="opacity:1;fill:none;stroke:#959187;stroke-width:0.529167;stroke-linejoin:bevel;stroke-dasharray:none;stroke-opacity:1"
         d="m 179.17471,129.00579 c -2.38539,-4.05838 -5.58056,-4.18914 -8.98263,-0.4778"
         id="path80" />
      <path
         style="opacity:1;fill:none;stroke:#959187;stroke-width:0.529167;stroke-linejoin:bevel;stroke-dasharray:none;stroke-opacity:1"
         d="m 179.07915,128.62355 c -0.84201,-3.8737 -3.85147,-7.38304 -7.64479,-4.96911"
         id="path81" />
      <path
         style="opacity:1;fill:none;stroke:#959187;stroke-width:0.529167;stroke-linejoin:bevel;stroke-dasharray:none;stroke-opacity:1"
         d="m 196.5041,128.91023 c 2.38539,-4.05838 5.58056,-4.18914 8.98263,-0.4778"
         id="path82" />
      <path
         style="opacity:1;fill:none;stroke:#959187;stroke-width:0.529167;stroke-linejoin:bevel;stroke-dasharray:none;stroke-opacity:1"
         d="m 196.59966,128.52799 c 0.84201,-3.8737 3.85147,-7.38304 7.64479,-4.96911"
         id="path83" />
    </g>
    <g
       id="g16"
       transform="translate(-4.6391539,-39.012286)"
       style="stroke:#959187;stroke-opacity:1;opacity:1">
      <path
         style="fill:none;stroke:#959187;stroke-width:0.529167;stroke-linejoin:bevel;stroke-opacity:1"
         d="m 52.908104,80.139221 c 10.779284,-8.382825 3.513693,-22.424133 3.513693,-2.567696 0,4.038364 1.41746,-10.885564 4.459687,2.297414"
         id="path9" />
      <path
         style="fill:none;stroke:#959187;stroke-width:0.529167;stroke-linejoin:bevel;stroke-opacity:1"
         d="m 64.868173,75.679535 c -1.22646,-3.881816 -6.170459,-0.207974 -3.91912,2.364986 2.121715,2.424816 3.182978,-3.108267 2.770413,-3.108267 -1.514806,0 2.018141,7.851288 4.324546,1.35142"
         id="path10" />
      <path
         style="fill:none;stroke:#959187;stroke-width:0.529167;stroke-linejoin:bevel;stroke-opacity:1"
         d="m 71.35499,77.706665 c -3.674457,3.102552 -4.776862,-5.000254 -1.824416,-5.000254 3.040417,0 1.350886,12.083213 0.810853,-0.06757 -0.0693,-1.559277 0.09243,-3.982199 0.135141,-5.135396"
         id="path11" />
      <path
         style="fill:none;stroke:#959187;stroke-width:0.529167;stroke-linejoin:bevel;stroke-opacity:1"
         d="m 73.24698,75.814678 c 0.641908,0.05308 2.133772,0.490929 2.432555,-0.405427 2.813098,-8.439287 -10.576745,6.419895 2.162273,2.027132"
         id="path15" />
      <path
         style="fill:none;stroke:#959187;stroke-width:0.529167;stroke-linejoin:bevel;stroke-opacity:1"
         d="m 80.341935,73.111838 c -8.849979,0.595292 8.451011,1.487324 -4.054261,4.797542"
         id="path16" />
    </g>
    <g
       id="g20"
       transform="matrix(0.06390151,0.99795621,0.99795621,-0.06390151,-21.285053,-1.0125172)"
       style="stroke:#959187;stroke-opacity:1;opacity:1">
      <path
         style="fill:none;stroke:#959187;stroke-width:0.529167;stroke-linejoin:bevel;stroke-opacity:1"
         d="m 37.535698,78.787803 c -4.603149,2.397792 -4.006552,2.321226 -6.618926,3.251922 C 13.216265,88.345787 26.567115,58.687891 30.136671,67.165587 33.414363,74.950105 20.995423,80.173064 15.000765,77.841807 5.9854168,74.33584 17.406587,56.303735 25.136417,55.27309"
         id="path19"
         sodipodi:nodetypes="csssc" />
      <path
         style="fill:none;stroke:#959187;stroke-width:0.529167;stroke-linejoin:bevel;stroke-opacity:1"
         d="m 21.082156,53.245958 c 7.756014,0.294111 5.699871,2.726627 1.756847,7.162528"
         id="path20" />
    </g>
    <path
       style="opacity:1;fill:#949486;fill-opacity:0.07450981;stroke:none;stroke-width:5.29167;stroke-linejoin:bevel;stroke-opacity:0.07450981"
       d="m 34.401545,62.68726 c 8.413171,-0.635566 16.772845,1.84749 25.159269,2.771235"
       id="path3" />
  </g>
</svg>
