<?xml version="1.0" encoding="UTF-8" standalone="no"?>
<!-- Created with Inkscape (http://www.inkscape.org/) -->

<svg
   width="50.528957mm"
   height="75.833977mm"
   viewBox="0 0 50.528961 75.833977"
   version="1.1"
   id="svg1"
   inkscape:version="1.3.2 (091e20e, 2023-11-25, custom)"
   sodipodi:docname="logo.svg"
   xmlns:inkscape="http://www.inkscape.org/namespaces/inkscape"
   xmlns:sodipodi="http://sodipodi.sourceforge.net/DTD/sodipodi-0.dtd"
   xmlns="http://www.w3.org/2000/svg"
   xmlns:svg="http://www.w3.org/2000/svg">
  <sodipodi:namedview
     id="namedview1"
     pagecolor="#ffffff"
     bordercolor="#000000"
     borderopacity="0.25"
     inkscape:showpageshadow="true"
     inkscape:pageopacity="0.0"
     inkscape:pagecheckerboard="false"
     inkscape:deskcolor="#d1d1d1"
     inkscape:document-units="mm"
     showborder="true"
     borderlayer="true"
     inkscape:zoom="0.97890839"
     inkscape:cx="191.53988"
     inkscape:cy="84.277549"
     inkscape:window-width="1920"
     inkscape:window-height="991"
     inkscape:window-x="-9"
     inkscape:window-y="-9"
     inkscape:window-maximized="1"
     inkscape:current-layer="layer1" />
  <defs
     id="defs1" />
  <g
     inkscape:label="Layer 1"
     inkscape:groupmode="layer"
     id="layer1"
     transform="translate(96.761692,231.36316)">
    <g
       id="g363"
       transform="matrix(0.51553352,0,0,0.51553352,-301.93241,-546.66044)">
      <g
         id="g359"
         transform="translate(-161.68854,192.74131)">
        <path
           style="fill:#000000;fill-opacity:1;stroke:#000000;stroke-width:0;stroke-linejoin:bevel;stroke-dasharray:none;stroke-opacity:1"
           id="path356"
           d="m 606.32133,436.89484 c -0.30012,1.22527 -0.53942,2.4638 -0.86542,3.68316 -0.41322,1.6548 -0.90522,3.28878 -1.32579,4.94172 -0.53247,2.12875 -1.1353,4.23974 -1.72632,6.35298 -0.63926,2.24507 -1.24058,4.50115 -1.85486,6.75335 -0.51474,2.13333 -1.02309,4.26745 -1.51582,6.40588 -0.52779,2.2599 -0.90128,4.54822 -1.19606,6.84879 -0.28786,2.34943 -0.33646,4.71562 -0.2474,7.07805 0.0983,1.82872 0.19225,3.65856 0.44018,5.4741 0.12673,1.14721 0.34693,2.2771 0.61008,3.39986 0.24927,0.96647 0.56547,1.93874 1.32839,2.62996 0.19576,0.17735 0.4254,0.31326 0.63812,0.4699 1.04876,0.6009 2.16383,1.06833 3.33275,1.37234 0.89492,0.18264 1.82424,0.27917 2.73375,0.13743 0.27211,-0.0424 0.53881,-0.11425 0.80822,-0.17149 1.7166,-0.43679 3.27475,-1.30689 4.83428,-2.12075 1.39681,-0.72896 2.63843,-1.70388 3.90427,-2.63202 1.63031,-1.21381 3.21419,-2.48875 4.78606,-3.77689 1.92183,-1.49218 3.72827,-3.12383 5.62342,-4.64863 2.02208,-1.61129 4.02005,-3.25214 6.01616,-4.89537 2.13168,-1.82301 4.26229,-3.64944 6.31417,-5.56241 1.93908,-1.79084 3.72004,-3.73565 5.48822,-5.69166 1.36161,-1.48705 2.61337,-3.06469 3.75161,-4.72764 0.93412,-1.42208 1.77979,-2.89653 2.49058,-4.44206 0.60636,-1.15893 1.00864,-2.40403 1.39908,-3.64737 0.31224,-0.94058 0.57482,-1.88798 0.71413,-2.86994 0.13647,-0.98987 0.10906,-1.7408 -0.29389,-2.66605 -0.55112,-0.92188 -1.55704,-1.30476 -2.51681,-1.66586 -1.22129,-0.38558 -2.48611,-0.61886 -3.75464,-0.78151 -1.75469,-0.18785 -3.52161,-0.14406 -5.28204,-0.0928 -2.3865,0.13477 -4.74806,0.52721 -7.11009,0.87551 -1.73045,0.24734 -3.43432,0.64097 -5.11649,1.11085 -2.03817,0.59284 -4.04265,1.29116 -6.06276,1.94097 -2.30738,0.76878 -4.61127,1.55093 -6.8893,2.40325 -1.82131,0.71436 -3.59082,1.55216 -5.36466,2.37536 -1.13643,0.54478 -2.28021,1.07965 -3.4412,1.57064 -0.59175,0.20068 -1.16255,0.45086 -1.73537,0.69835 -0.46132,0.18045 -0.91178,0.38231 -1.38564,0.52889 -1.5756,0.49694 -0.87283,2.72516 0.70279,2.22822 v 0 c 0.54906,-0.17548 1.07742,-0.39788 1.61154,-0.61318 0.56703,-0.24615 1.13356,-0.49 1.71897,-0.69132 1.18398,-0.50344 2.35312,-1.04489 3.51244,-1.60228 1.71997,-0.7982 3.43541,-1.6113 5.20031,-2.30657 2.24346,-0.84048 4.51345,-1.6089 6.78576,-2.36723 1.99161,-0.64099 3.96803,-1.32901 5.97705,-1.91519 1.58666,-0.44536 3.19485,-0.81519 4.82743,-1.04934 2.27178,-0.33502 4.54279,-0.71349 6.83741,-0.85151 1.63949,-0.048 3.28485,-0.0931 4.91961,0.0753 1.09622,0.13752 2.188,0.3399 3.24702,0.65823 0.13835,0.0481 1.13919,0.5021 1.17673,0.48199 0.0159,-0.009 0.008,-0.0352 0.0104,-0.0528 0.0348,0.0725 0.0879,0.13678 0.11322,0.21316 0.12504,0.3772 0.0117,0.7912 -0.003,1.17435 -0.11465,0.85456 -0.36318,1.67196 -0.62893,2.49068 -0.36102,1.1498 -0.7276,2.30301 -1.29342,3.3727 -0.65336,1.42667 -1.43761,2.78403 -2.29579,4.09788 -1.07724,1.57707 -2.26608,3.0701 -3.55619,4.47966 -1.72369,1.90679 -3.45798,3.80434 -5.3486,5.54985 -2.01578,1.88108 -4.11171,3.67405 -6.20555,5.46719 -1.98948,1.63789 -3.9809,3.27327 -5.99635,4.87922 -1.89963,1.53019 -3.71329,3.16375 -5.63934,4.66159 -1.53915,1.26182 -3.09044,2.51027 -4.68651,3.69969 -1.17058,0.85831 -2.31531,1.76556 -3.60391,2.445 -1.37947,0.72028 -2.7541,1.50199 -4.26478,1.91227 -0.81534,0.19883 -1.62913,0.24166 -2.45321,0.0498 -0.90208,-0.22332 -1.74976,-0.59947 -2.57408,-1.02525 -0.0374,-0.023 -0.40448,-0.23558 -0.47427,-0.31353 -0.33523,-0.37438 -0.39117,-0.95289 -0.5536,-1.40422 -0.2481,-1.05118 -0.45252,-2.10905 -0.56987,-3.18374 -0.2417,-1.73891 -0.32084,-3.49332 -0.42006,-5.24485 -0.0871,-2.23354 -0.0395,-4.47071 0.23024,-6.69222 0.28383,-2.22408 0.64518,-4.43596 1.15528,-6.6206 0.48566,-2.10824 0.98752,-4.21204 1.49314,-6.31566 0.61291,-2.24739 1.21274,-4.49871 1.85087,-6.73889 0.5959,-2.13131 1.20377,-4.26028 1.74078,-6.40718 0.41673,-1.64461 0.9095,-3.26915 1.319,-4.91562 0.32666,-1.2315 0.57481,-2.48006 0.87431,-3.71763 0.40069,-1.60276 -1.86597,-2.16943 -2.26666,-0.56666 z" />
        <path
           style="fill:#000000;fill-opacity:1;stroke:#000000;stroke-width:0;stroke-linejoin:bevel;stroke-dasharray:none;stroke-opacity:1"
           id="path357"
           d="m 608.91432,437.56326 c 0.0611,-0.81397 0.20187,-1.61777 0.30306,-2.42707 0.0589,-0.68008 0.0987,-1.35059 0.27353,-2.0123 0.13345,-0.78137 0.38132,-1.52271 0.63717,-2.26902 0.12088,-0.64883 0.33511,-1.20918 0.56796,-1.81953 0.28265,-0.49635 0.62366,-0.95892 1.01818,-1.37155 0.37821,-0.36074 0.72406,-0.8031 1.25088,-0.93063 0.87117,-0.0681 1.75326,-0.0385 2.61242,0.12231 0.8555,0.22229 1.7096,0.5013 2.50871,0.88235 1.00778,0.57243 2.00111,1.17165 2.98614,1.7826 1.0698,0.6916 2.07993,1.46125 3.03209,2.30618 0.89733,0.72019 1.6398,1.59909 2.37295,2.47899 0.76456,0.94453 1.43428,1.96156 2.10978,2.97047 0.80383,1.24838 1.62966,2.48228 2.44977,3.71998 0.51176,0.79366 1.09632,1.53813 1.57931,2.3502 0.24082,0.36621 0.13385,0.19846 0.32331,0.50169 0.87767,1.39969 2.85714,0.1585 1.97948,-1.24119 v 0 c -0.20275,-0.32248 -0.10269,-0.16854 -0.29927,-0.4625 -0.5065,-0.83886 -1.09657,-1.62075 -1.63518,-2.43877 -0.82224,-1.2408 -1.65,-2.47789 -2.45601,-3.72933 -0.72097,-1.07667 -1.43745,-2.16075 -2.25641,-3.16643 -0.80866,-0.96994 -1.63334,-1.93374 -2.61849,-2.73204 -1.05271,-0.93106 -2.16755,-1.78264 -3.35056,-2.54324 -1.064,-0.65887 -2.13389,-1.31168 -3.23052,-1.91462 -0.98834,-0.45284 -2.02474,-0.8192 -3.0843,-1.06436 -1.23474,-0.21328 -2.51605,-0.28603 -3.75172,-0.0423 -0.97189,0.34623 -1.52902,0.81304 -2.22963,1.55555 -0.59,0.64079 -1.12549,1.34043 -1.49414,2.13447 -0.23657,0.62142 -0.48032,1.23661 -0.59517,1.89475 -0.27521,0.8048 -0.54081,1.60741 -0.69047,2.44759 -0.18939,0.75886 -0.27684,1.52222 -0.32828,2.3015 -0.10061,0.80906 -0.24224,1.6127 -0.30295,2.42639 -0.20492,1.63935 2.11346,1.92914 2.31836,0.28981 z" />
        <path
           style="fill:#000000;fill-opacity:1;stroke:#000000;stroke-width:0;stroke-linejoin:bevel;stroke-dasharray:none;stroke-opacity:1"
           id="path358"
           d="m 621.37728,430.14184 c 1.54668,-0.11204 3.09569,-0.17782 4.64242,-0.0517 2.03686,0.28524 3.89664,1.19566 5.70481,2.12735 1.73282,0.98166 3.32357,2.18321 4.83017,3.47979 1.05495,0.89821 1.89222,1.98318 2.66388,3.12382 0.60451,0.87243 1.08553,1.82096 1.53356,2.78071 0.70132,1.49585 2.81678,0.50401 2.11545,-0.99184 v 0 c -0.50317,-1.06924 -1.03998,-2.12705 -1.7152,-3.10007 -0.88979,-1.30967 -1.86284,-2.55197 -3.07467,-3.58442 -1.64684,-1.41405 -3.38653,-2.72382 -5.28477,-3.7858 -2.08617,-1.07068 -4.23643,-2.08961 -6.59143,-2.37888 -1.68538,-0.1266 -3.37204,-0.0767 -5.05671,0.0562 -1.64389,0.1644 -1.4114,2.48924 0.23249,2.32484 z" />
        <path
           style="fill:#000000;fill-opacity:1;stroke:#000000;stroke-width:0;stroke-linejoin:bevel;stroke-dasharray:none;stroke-opacity:1"
           id="path359"
           d="m 566.58493,559.96121 c 2.81388,-2.66937 5.54354,-5.41662 8.17321,-8.26813 3.4184,-3.9641 6.55239,-8.1794 9.44543,-12.5411 1.86825,-2.81671 2.49872,-3.93988 4.23083,-6.82542 4.05575,-6.80607 7.17575,-14.0858 10.22175,-21.38034 1.65461,-4.18911 3.40143,-8.3672 4.61091,-12.7128 0.48419,-1.89388 0.8818,-3.81329 1.22264,-5.73839 0.28738,-1.62693 -2.01344,-2.03331 -2.30079,-0.40641 v 0 c -0.3263,1.85196 -0.71065,3.69797 -1.17326,5.52028 -1.17563,4.25376 -2.90616,8.33571 -4.51553,12.43705 -3.00233,7.19042 -6.07267,14.36852 -10.06907,21.07837 -1.69517,2.82548 -2.32554,3.94762 -4.15287,6.7041 -2.83064,4.26994 -5.89622,8.3974 -9.23792,12.28105 -2.65528,2.8816 -5.4294,5.63829 -8.25021,8.35601 -1.05767,1.26917 0.73723,2.76491 1.79488,1.49573 z" />
      </g>
      <path
         style="fill:#ff7edf;fill-opacity:1;stroke:none;stroke-width:20.2353;stroke-linejoin:bevel;stroke-dasharray:none;stroke-opacity:1"
         d="m 1670.7482,2578.107 c -3.7174,-1.2625 -7.679,-3.9396 -8.8036,-5.9491 -2.9584,-5.2863 -5.0569,-42.3915 -3.3179,-58.6665 2.4993,-23.3911 11.8126,-60.1115 15.5726,-61.3996 1.8193,-0.6232 14.2348,-5.9017 27.5901,-11.7299 57.8786,-25.258 110.8412,-36.5086 137.2914,-29.1641 7.5656,2.1008 7.7473,2.3649 6.436,9.3545 -5.5772,29.729 -31.2138,59.2123 -101.2332,116.4228 -47.1753,38.5454 -60.0111,45.7251 -73.5354,41.1319 z"
         id="path360"
         transform="scale(0.26458333)" />
      <path
         style="fill:#ff7edf;fill-opacity:1;stroke:none;stroke-width:28.617;stroke-linejoin:bevel;stroke-dasharray:none;stroke-opacity:1"
         d="m 1683.399,2411.7017 c 3.8366,-13.772 8.2084,-32.1226 9.7151,-40.7793 2.9829,-17.1374 8.985,-28.6171 14.9626,-28.6171 7.4784,0 21.3937,6.1982 22.9354,10.216 0.8638,2.2509 3.2338,4.0926 5.2667,4.0926 6.7823,0 24.9519,20.3161 37.458,41.8832 1.2312,2.1232 -6.5283,5.8732 -22.3784,10.815 -13.3446,4.1607 -34.8607,12.0344 -47.8135,17.4972 -12.9527,5.4628 -24.3539,9.9323 -25.336,9.9323 -0.982,0 1.3535,-11.268 5.1901,-25.0399 z"
         id="path361"
         transform="scale(0.26458333)" />
      <path
         style="fill:#407edf;fill-opacity:1;stroke:none;stroke-width:2.52941;stroke-linejoin:bevel;stroke-dasharray:none;stroke-opacity:1"
         d="m 1788.5765,2400.9405 c -0.2307,-0.4667 -0.4285,-1.7451 -0.4924,-3.1829 -0.1373,-3.0871 -0.7682,-4.7642 -3.5044,-9.3144 -6.3831,-10.615 -15.4147,-22.7484 -22.6936,-30.4876 -1.4205,-1.5104 -2.5337,-2.7953 -2.4737,-2.8553 0.1743,-0.1743 5.2344,1.583 8.1767,2.8397 3.7651,1.6082 8.8331,4.1778 11.5668,5.8645 4.9176,3.0343 11.2834,7.7982 16.0595,12.0184 5.208,4.6018 11.2873,13.085 14.6258,20.409 0.4736,1.039 1.0333,2.0795 1.2439,2.3121 0.3541,0.3913 0.2249,0.4359 -1.7181,0.5937 -3.9091,0.3172 -10.9305,1.155 -15.6794,1.8707 l -4.7255,0.7121 z"
         id="path362"
         transform="scale(0.26458333)" />
    </g>
  </g>
</svg>
