<?xml version="1.0" encoding="UTF-8" standalone="no"?>
<!-- Created with Inkscape (http://www.inkscape.org/) -->

<svg
   width="210mm"
   height="203.35135mm"
   viewBox="0 0 210 203.35135"
   version="1.1"
   id="svg1"
   inkscape:version="1.3.2 (091e20e, 2023-11-25, custom)"
   sodipodi:docname="scribbles.svg"
   xmlns:inkscape="http://www.inkscape.org/namespaces/inkscape"
   xmlns:sodipodi="http://sodipodi.sourceforge.net/DTD/sodipodi-0.dtd"
   xmlns="http://www.w3.org/2000/svg"
   xmlns:svg="http://www.w3.org/2000/svg">
  <sodipodi:namedview
     id="namedview1"
     pagecolor="#ffffff"
     bordercolor="#000000"
     borderopacity="0.25"
     inkscape:showpageshadow="2"
     inkscape:pageopacity="0.0"
     inkscape:pagecheckerboard="0"
     inkscape:deskcolor="#d1d1d1"
     inkscape:document-units="mm"
     inkscape:zoom="0.69219276"
     inkscape:cx="457.96492"
     inkscape:cy="437.73934"
     inkscape:window-width="1920"
     inkscape:window-height="991"
     inkscape:window-x="-9"
     inkscape:window-y="-9"
     inkscape:window-maximized="1"
     inkscape:current-layer="layer1">
    <inkscape:page
       x="0"
       y="0"
       width="210"
       height="203.35135"
       id="page1"
       margin="0 0 80.652504"
       bleed="0" />
    <inkscape:page
       x="210"
       y="203.35135"
       width="4.8319497e-06"
       height="2.6489259e-06"
       id="page2" />
  </sodipodi:namedview>
  <defs
     id="defs1" />
  <g
     inkscape:label="Layer 1"
     inkscape:groupmode="layer"
     id="layer1">
    <g
       id="g2"
       transform="translate(-1061.8843,-624.88217)">
      <path
         sodipodi:type="star"
         style="fill:#959187;fill-opacity:1;stroke:#959187;stroke-width:2.11667;stroke-linejoin:bevel;stroke-dasharray:none;stroke-opacity:1"
         id="path437"
         inkscape:flatsided="false"
         sodipodi:sides="5"
         sodipodi:cx="805.23035"
         sodipodi:cy="177.75032"
         sodipodi:r1="58.492706"
         sodipodi:r2="29.246351"
         sodipodi:arg1="1.1562895"
         sodipodi:arg2="1.784608"
         inkscape:rounded="0"
         inkscape:randomized="0"
         d="m 828.78762,231.28957 -29.76295,-24.95886 -37.43358,10.36844 14.54003,-36.01895 -21.42859,-32.39743 38.74918,2.69793 24.18999,-30.39116 9.40827,37.68636 36.37883,13.61467 -32.93455,20.59352 z"
         inkscape:transform-center-x="-2.4007499"
         inkscape:transform-center-y="-1.1334718"
         transform="matrix(0.62596066,0,0,0.62596066,702.69055,556.60006)" />
      <path
         style="opacity:0.410334;fill:#959187;fill-opacity:1;stroke:#959187;stroke-width:3.0772;stroke-linejoin:bevel;stroke-dasharray:none;stroke-opacity:1"
         id="path488"
         d="m 1107.3125,714.24163 c 7.7413,-0.96681 15.3482,-2.70091 23.0996,-3.58837 1.2979,0.11806 3.0811,-0.14378 4.023,1.13989 1.1016,1.50129 -0.1801,7.42832 -0.4549,9.11454 -0.7185,4.00971 -1.6987,10.35562 1.8424,13.45608 0.8229,0.7205 1.9177,1.05231 2.8764,1.57841 7.6702,1.99304 15.6081,0.27691 23.373,0.97837 1.7956,3.96656 0.6021,8.54179 -0.1849,12.61585 -0.692,3.58205 -1.4913,6.9787 -2.297,10.53565 -0.3912,1.7267 2.0508,2.27985 2.4419,0.55309 v 0 c 1.1574,-5.11031 2.5146,-10.27395 3.1509,-15.48492 0.2928,-2.39827 0.6893,-5.8985 -0.5003,-8.23978 -0.5199,-1.023 -1.5955,-1.64952 -2.3934,-2.47431 -0.9926,-0.0836 -1.9819,-0.22993 -2.9779,-0.25084 -6.4928,-0.13601 -13.0781,0.95226 -19.5077,-0.4801 -0.6493,-0.26434 -1.3836,-0.37703 -1.9479,-0.79288 -3.053,-2.24984 -1.982,-8.50499 -1.404,-11.59246 0.5718,-3.52069 2.1681,-8.7261 -0.7869,-11.69779 -1.5493,-1.55799 -3.5936,-1.30181 -5.5382,-1.44633 -7.7387,0.89049 -15.3357,2.60303 -23.0624,3.58439 -1.7618,0.17558 -1.5135,2.66709 0.2483,2.49151 z" />
      <path
         style="opacity:0.410334;fill:#959187;fill-opacity:1;stroke:#959187;stroke-width:3.0772;stroke-linejoin:bevel;stroke-dasharray:none;stroke-opacity:1"
         id="path489"
         d="m 1177.5957,805.35634 c 7.4282,-1.97873 14.707,-4.37253 21.8806,-7.12958 7.3124,-2.96075 14.4463,-6.55184 20.7429,-11.35215 1.7313,-1.31992 3.4625,-2.6621 4.9918,-4.21139 1.6445,-1.66603 2.9952,-3.59819 4.4929,-5.39732 3.3997,-5.2185 6.1969,-10.78626 7.3898,-16.94404 0.3892,-2.00903 0.8162,-5.68697 0.026,-7.83095 -0.3205,-0.86968 -1.0822,-1.50503 -1.6233,-2.25758 -0.9879,-0.25151 -1.9454,-0.80464 -2.9635,-0.75458 -2.3405,0.11526 -5.8149,2.06927 -7.5953,3.27804 -2.5216,1.71205 -5.7248,4.63858 -7.7228,6.89064 -1.2025,1.35544 -2.2287,2.8576 -3.343,4.2864 -0.8949,1.53724 -1.8984,3.01626 -2.6847,4.61179 -2.3652,4.79936 -4.9713,12.90811 -1.3616,17.81921 1.0071,1.3709 2.5814,2.21608 3.8722,3.3241 2.3548,0.59415 4.6604,1.43772 7.0643,1.78244 2.7409,0.39292 5.5272,0.42444 8.296,0.41993 8.987,-0.0147 17.8732,-1.53234 26.6005,-3.52441 1.2445,-0.39091 2.4889,-0.78184 3.7334,-1.17275 1.6885,-0.53241 0.9356,-2.92035 -0.753,-2.38794 v 0 c -1.1794,0.37323 -2.3589,0.74652 -3.5384,1.11983 -10.8741,2.48947 -22.6024,4.43201 -33.7674,3.10752 -2.052,-0.24348 -4.042,-0.86216 -6.0631,-1.29323 -1.0424,-0.77462 -2.3024,-1.32069 -3.1273,-2.32381 -4.2767,-5.20019 0.8304,-15.3182 3.7063,-19.94656 1.0437,-1.34891 2.003,-2.76756 3.1309,-4.04667 3.4767,-3.94268 8.0123,-7.99935 13.1983,-9.46591 0.4464,-0.12624 0.9237,-0.0881 1.3855,-0.13211 0.3596,0.3401 0.8935,0.56196 1.0775,1.02134 0.7538,1.88146 0.3585,5.09887 0.032,6.83279 -1.0927,5.80648 -3.7297,11.05585 -6.8986,15.99002 -1.3935,1.69385 -2.6439,3.51632 -4.1805,5.08157 -1.4671,1.49449 -3.1307,2.78843 -4.7943,4.06066 -6.1334,4.69025 -13.0932,8.18912 -20.2225,11.07803 -7.0553,2.71364 -14.2142,5.0675 -21.5184,7.02096 -1.7294,0.37921 -1.1931,2.82492 0.5363,2.44571 z" />
      <g
         id="g490"
         style="fill:#89867c;fill-opacity:1;stroke:#89867c;stroke-opacity:1"
         transform="matrix(0.62596066,0,0,0.62596066,385.49617,551.45017)">
        <path
           style="opacity:0.410334;fill:#89867c;fill-opacity:1;stroke:#89867c;stroke-width:4.91596;stroke-linejoin:bevel;stroke-dasharray:none;stroke-opacity:1"
           id="path484"
           d="m 1122.8477,432.29849 c -4.4127,-8.51691 -4.9933,-11.43576 -8.5371,-20.33862 -3.0609,-7.53912 -5.814,-15.21119 -7.6662,-23.14522 -1.1634,-4.98348 -1.3465,-6.7087 -2.1399,-11.71287 -1.1436,-9.20665 -1.8309,-18.50355 -1.3633,-27.77868 0.3159,-1.52614 0.1293,-5.63652 1.9419,-6.49372 0.4592,-0.21717 1.7648,-0.24278 2.1147,-0.26697 3.43,0.21921 6.6891,1.69746 9.1311,4.13758 0.5792,0.57875 1.0563,1.25138 1.5844,1.87709 4.0323,5.71265 5.793,12.59282 7.4981,19.2759 1.2645,4.98528 1.7296,10.1023 2.2425,15.20166 0.6729,1.89572 0.5814,2.6002 4.2758,-0.69437 0.7582,-0.67612 0.668,-1.91982 1.0541,-2.85943 0.5607,-1.36472 1.1557,-2.71595 1.785,-4.05043 1.4104,-2.99056 3.24,-6.40429 4.7712,-9.32563 4.0818,-7.41596 9.0243,-13.17647 16.0492,-17.95042 1.1114,-0.75528 2.3007,-1.38914 3.451,-2.0837 3.657,-1.80377 8.2414,-4.26712 12.3234,-2.19358 0.5084,0.25826 0.934,0.6545 1.4011,0.98176 4.4125,5.52786 2.7397,11.89141 1.3366,18.219 -2.7893,8.83684 -7.4048,16.93013 -12.9774,24.29737 -1.2661,1.67384 -2.6102,3.28721 -3.9153,4.9308 -4.8998,6.10786 -10.5058,11.58836 -15.6905,17.44078 -2.6007,2.93571 -5.0951,5.964 -7.6447,8.94424 -4.2373,5.02661 -8.4175,10.10245 -12.52,15.23982 -1.765,2.21019 1.3607,4.70622 3.1256,2.49602 v 0 c 4.0744,-5.10222 8.226,-10.14317 12.434,-15.13557 2.5172,-2.94245 4.9779,-5.93402 7.5455,-8.83266 5.2499,-5.92685 10.927,-11.47681 15.8836,-17.66647 1.3455,-1.69725 2.7319,-3.36291 4.0366,-5.09177 5.89,-7.80516 10.7413,-16.39126 13.6299,-25.76629 1.4956,-6.89986 3.178,-13.96733 -1.1699,-20.27732 -0.5463,-0.79285 -1.2755,-1.44272 -1.9132,-2.16406 -2.1285,-1.29201 -2.5808,-1.84417 -5.1381,-2.24157 -4.5488,-0.70692 -8.9068,1.39591 -12.8233,3.40047 -1.2614,0.76991 -2.5646,1.47527 -3.7842,2.30974 -7.4394,5.09018 -12.8677,11.40563 -17.1829,19.28675 -2.3874,4.55652 -4.8305,9.08621 -6.7698,13.85882 -0.4267,1.04997 -1.7268,2.21411 -1.1606,3.19587 0.5683,0.98531 2.238,0.4082 3.357,0.61228 0.07,0.23963 0.1401,0.47924 0.2102,0.71884 -0.5341,-5.29812 -1.0287,-10.61312 -2.347,-15.79155 -1.865,-7.2831 -3.8352,-14.74782 -8.3477,-20.9016 -0.6915,-0.78473 -1.3212,-1.62849 -2.0743,-2.35419 -3.2932,-3.1732 -7.6387,-4.95064 -12.1886,-5.01002 -1.9463,0.32219 -2.9166,0.2222 -4.5285,1.51551 -2.6314,2.11138 -2.5931,6.01419 -3.0016,9.01258 -0.4678,9.55196 0.2112,19.12469 1.4079,28.60498 0.8247,5.17673 1.0115,6.93745 2.2201,12.09543 1.8963,8.09262 4.6974,15.92249 7.8201,23.61416 3.5445,8.90389 5.5307,13.44274 9.9592,21.95378 1.0505,2.62614 3.3448,-0.4684 2.2943,-3.09452 z"
           sodipodi:nodetypes="ccsccscscccssscscsccscscssscscscscscscssccccscsccsccc" />
        <path
           style="opacity:0.410334;fill:#89867c;fill-opacity:1;stroke:#89867c;stroke-width:26.5852;stroke-linejoin:bevel;stroke-dasharray:none;stroke-opacity:1"
           d="m 4240.5068,1603.9642 c -9.2004,-21.918 -32.9579,-84.9882 -38.7066,-102.7563 -9.9761,-30.8339 -15.9967,-60.8987 -20.3929,-101.8343 -2.0229,-18.8357 -2.5649,-84.8508 -0.7501,-91.364 1.0577,-3.7963 1.5084,-4.0173 6.4388,-3.1567 2.9158,0.509 9.341,2.8767 14.2783,5.2616 12.7403,6.1541 21.9376,19.0816 31.4014,44.1366 6.064,16.0542 14.3471,51.4377 16.7596,71.5933 3.306,27.6201 3.4114,28.086 7.4347,32.8675 5.4694,6.5001 12.4043,6.0567 21.8325,-1.3959 7.3547,-5.8136 10.4037,-10.2448 12.2048,-17.7382 1.8049,-7.5089 25.2265,-52.7892 34.8582,-67.3904 11.0396,-16.7354 30.7112,-36.9304 45.6669,-46.8819 23.018,-15.3162 42.9489,-21.6346 51.1968,-16.2304 1.9667,1.2886 5.0245,5.07 6.7952,8.4032 2.7672,5.209 3.1945,8.0697 3.0425,20.3687 -0.2216,17.9282 -4.642,35.5839 -14.3643,57.3718 -16.9062,37.8876 -39.9066,69.7077 -88.0911,121.8702 -23.4042,25.3362 -38.1281,42.2196 -66.7354,76.5228 -9.6804,11.6078 -17.7706,21.1051 -17.9782,21.1051 -0.2077,0 -2.4087,-4.8387 -4.8911,-10.7527 z"
           id="path490"
           transform="scale(0.26458333)" />
      </g>
    </g>
  </g>
</svg>
