<?xml version="1.0" encoding="UTF-8" standalone="no"?>
<!-- Created with Inkscape (http://www.inkscape.org/) -->

<svg
   width="52.135136mm"
   height="92.884171mm"
   viewBox="0 0 52.135136 92.884171"
   version="1.1"
   id="svg1"
   xml:space="preserve"
   inkscape:version="1.3.2 (091e20e, 2023-11-25, custom)"
   sodipodi:docname="wine.svg"
   xmlns:inkscape="http://www.inkscape.org/namespaces/inkscape"
   xmlns:sodipodi="http://sodipodi.sourceforge.net/DTD/sodipodi-0.dtd"
   xmlns="http://www.w3.org/2000/svg"
   xmlns:svg="http://www.w3.org/2000/svg"><sodipodi:namedview
     id="namedview1"
     pagecolor="#ffffff"
     bordercolor="#000000"
     borderopacity="0.25"
     inkscape:showpageshadow="2"
     inkscape:pageopacity="0.0"
     inkscape:pagecheckerboard="0"
     inkscape:deskcolor="#d1d1d1"
     inkscape:document-units="mm"
     inkscape:zoom="0.69219276"
     inkscape:cx="76.568267"
     inkscape:cy="274.49001"
     inkscape:window-width="1920"
     inkscape:window-height="991"
     inkscape:window-x="-9"
     inkscape:window-y="-9"
     inkscape:window-maximized="1"
     inkscape:current-layer="layer1" /><defs
     id="defs1" /><g
     inkscape:label="Layer 1"
     inkscape:groupmode="layer"
     id="layer1"><g
       id="g42"
       transform="translate(-163.9597,-82.412209)"><path
         style="fill:#dddbd8;fill-opacity:0.815686;stroke:none;stroke-width:1;stroke-linejoin:bevel;stroke-dasharray:none;stroke-opacity:1"
         d="m 186.72394,170.28764 c -2.83359,1.45556 -3.89755,-0.81063 -5.54247,-2.86679 -6.61857,-8.27321 -1.1586,-17.39295 -0.57336,-26.75676 0.44152,-7.0644 -1.381,-14.88268 0,-21.78764 0.92869,-4.64349 4.61828,-7.38818 5.73359,-11.84942 1.1964,-4.78563 -1.33081,-15.101973 2.86679,-17.200775 0.69215,-0.346078 1.74154,0.244263 2.29344,0.382238 6.02049,1.505122 5.16023,4.295696 5.16023,10.320467 0,4.77145 -2.12291,10.2381 -0.9556,14.90733 0.90634,3.62538 3.01051,7.50257 4.20463,11.08494 3.75062,11.25184 6.89725,48.78754 -14.71621,43.38417"
         id="path41" /><path
         style="fill:none;fill-opacity:1;stroke:#959187;stroke-width:1;stroke-linejoin:bevel;stroke-dasharray:none;stroke-opacity:1"
         d="m 200.55078,165.00842 -0.13515,-42.84003 c -1.11507,-2.23015 -2.92825,-4.50509 -4.1894,-7.02738 -1.04942,-2.09885 -0.73341,-4.59604 -1.45377,-6.7571 -0.72179,-2.16538 -0.2695,-10.337952 0.64292,-12.162785 0.11721,-0.234424 0.35879,-0.797998 0.57436,-1.013565 0.57583,-0.575839 -0.0382,-1.423428 -0.20272,-1.58792 -0.13306,-0.133065 0.25722,-1.117619 0.0338,-1.452776 -0.12283,-0.184237 -0.8785,-1.047396 -0.946,-1.081136 -1.08045,-0.540228 -6.21852,-1.080145 -7.29767,-0.540568 -1.1607,0.580353 -0.67571,0.639875 -0.67571,1.891988 0,0.150738 -0.72937,1.899915 -0.47299,2.669055 0.77947,2.338418 0.87501,0.665609 1.64008,2.578297 0.81299,2.032467 -1.07434,8.33602 -1.07434,10.63664 0,5.02344 -5.79564,7.88362 -6.039,13.17154 l -0.27028,43.11031 c -0.58896,4.58797 13.61717,3.48887 16.0819,2.43256 1.34806,-0.57774 2.37168,-1.46222 3.78398,-2.02713 z"
         id="path33"
         sodipodi:nodetypes="ccsssssscsssssccsc" /><path
         style="fill:none;fill-opacity:1;stroke:#959187;stroke-width:1;stroke-linejoin:bevel;stroke-dasharray:none;stroke-opacity:1"
         d="m 183.25259,126.62808 c 0.81446,5.11799 0.3585,10.4466 -0.54057,15.54133 -0.0748,0.42364 -0.67273,2.97611 -0.40542,3.24341 0.17881,0.17881 1.6767,-0.1298 1.75684,-0.13514 1.95688,-0.13046 3.75481,-0.105 5.67597,0.13514 1.56104,0.19513 3.43841,0.27029 5.00025,0.27029 0.28354,0 3.52097,0.263 3.5137,0.27028 -1.05538,1.05538 -1.02674,-3.1048 -1.08114,-3.64883 -0.36944,-3.69441 -1.26321,-10.71188 -0.54057,-14.32506 0.0794,-0.39689 0.40543,-1.30526 0.40543,-1.48656 0,-0.41532 -0.80097,0.27028 -1.21628,0.27028 -1.13964,0 -2.23317,0.27029 -3.37855,0.27029 -1.63788,0 -3.50531,-0.26889 -5.1354,-0.54057 -1.43034,-0.23839 -2.63043,0.33855 -4.05426,0.13514 z"
         id="path34" /><path
         style="fill:none;fill-opacity:1;stroke:#959187;stroke-width:1;stroke-linejoin:bevel;stroke-dasharray:none;stroke-opacity:1"
         d="m 186.83385,96.153554 8.58152,0.270282"
         id="path35" /><path
         style="fill:none;fill-opacity:1;stroke:#959187;stroke-width:1;stroke-linejoin:bevel;stroke-dasharray:none;stroke-opacity:1"
         d="m 190.07726,131.0202 c -1.86082,-3.71054 -6.34561,0.88852 -4.52726,3.91912 0.6822,1.13698 1.47153,1.74766 2.77042,1.89198 0.69674,0.0774 1.51261,-0.91633 2.02713,-1.28384"
         id="path39" /><path
         style="fill:none;fill-opacity:1;stroke:#959187;stroke-width:1;stroke-linejoin:bevel;stroke-dasharray:none;stroke-opacity:1"
         d="m 193.52338,138.72329 c -4.11947,-2.84577 -7.28441,4.33353 -1.89198,4.93269 1.77521,0.19724 5.06783,-1.95956 0.60814,-1.95956"
         id="path40" /></g></g></svg>
